<?xml version="1.0" ?><svg data-name="Layer 1" id="Layer_1" viewBox="0 0 64 64" xmlns="http://www.w3.org/2000/svg"><title/><path d="M40.54,39.52a1,1,0,0,1-.61-.92V6.83a3.83,3.83,0,1,0-7.66,0V38.6a1,1,0,0,1-.61.92,11.2,11.2,0,1,0,8.87,0ZM36.1,57a7.2,7.2,0,0,1-2-14.11V7a2,2,0,0,1,4,0V42.89A7.2,7.2,0,0,1,36.1,57Z"/><path d="M19.89,5.23H12.31a1,1,0,0,0,0,2h7.58a1,1,0,0,0,0-2Z"/><path d="M19.89,11H16.23a1,1,0,0,0,0,2h3.67a1,1,0,0,0,0-2Z"/><path d="M19.89,16.68H16.23a1,1,0,0,0,0,2h3.67a1,1,0,0,0,0-2Z"/><path d="M19.89,22.41H12.31a1,1,0,0,0,0,2h7.58a1,1,0,0,0,0-2Z"/><path d="M19.89,28.14H16.23a1,1,0,0,0,0,2h3.67a1,1,0,1,0,0-2Z"/><path d="M19.89,33.86H16.23a1,1,0,0,0,0,2h3.67a1,1,0,1,0,0-2Z"/><path d="M19.89,39.59H12.31a1,1,0,1,0,0,2h7.58a1,1,0,1,0,0-2Z"/><path d="M19.89,45.32H16.23a1,1,0,0,0,0,2h3.67a1,1,0,0,0,0-2Z"/><path d="M19.89,51H16.23a1,1,0,0,0,0,2h3.67a1,1,0,1,0,0-2Z"/><path d="M20.89,57.77a1,1,0,0,0-1-1H12.31a1,1,0,1,0,0,2h7.58A1,1,0,0,0,20.89,57.77Z"/><path d="M48.81,9a1.88,1.88,0,1,1,1.88-1.88A1.89,1.89,0,0,1,48.81,9Z"/></svg>